<svg viewBox="0 0 512 350">
<path d="M 512,177.16465 H 428.26435 V 0 L 309.9004,58.882866 c -17.43183,-4.403469 -35.48611,-6.626833 -53.90117,-6.626833 -18.41507,0 -36.46935,2.223364 -53.90118,6.626833 L 83.73565,0 V 177.16465 H 0 l 85.22675,46.3523 c 0.910459,5.53138 2.232785,10.92833 3.982475,16.18468 l -74.123214,34.49073 97.928229,5.57773 c 13.77608,15.30708 32.37385,28.94083 55.76855,40.81319 37.74831,19.15433 70.43043,28.65789 87.19785,29.41672 17.30251,-0.75883 50.32904,-10.50343 88.17026,-29.8926 22.9534,-11.76112 41.24304,-25.23418 54.83486,-40.33731 l 97.92823,-5.57618 -74.12785,-34.49228 c 1.74968,-5.25635 3.0751,-10.65176 3.98556,-16.18159 z m -294.19813,42.94077 c -49.67523,3.56093 -86.99302,4.13042 -86.99302,-42.39421 49.67523,-3.56094 86.99302,-4.13042 86.99302,42.39421 z m 76.39471,0 c -3.56779,-49.56875 37.76837,-42.39421 84.39366,-42.39421 3.5678,49.56875 -37.76836,42.39421 -84.39366,42.39421 z" />
</svg>
